# xmcd
#
# Track frame offsets:
#	150
#	15372
#	31666
#	48826
#	66090
#	85744
#	99709
#	113431
#	123614
#	137532
#
# Disc length: 2042 seconds
#
# Revision: 0
# Processed by: cddbd v1.5.2PL0 Copyright (c) Steve Scherf et al.
# Submitted via: EasyCDDAExtractor 16.0.6.1
#
DISCID=7007f80a
DTITLE=Gabriela - Ubale
DYEAR=1900
DGENRE=
TTITLE0=Bailar soñar bailar
TTITLE1=Todo puede cambiar
TTITLE2=Tema_para_cecilia
TTITLE3=Me llaman los viejos vientos
TTITLE4=Ubale
TTITLE5=Todo en vos es corazon
TTITLE6=Desde tu corazon
TTITLE7=Que_tengas_casi_todo
TTITLE8=Es la lluvia y nada mas
TTITLE9=Planeta_azul
EXTD=
EXTT0=
EXTT1=
EXTT2=
EXTT3=
EXTT4=
EXTT5=
EXTT6=
EXTT7=
EXTT8=
EXTT9=
PLAYORDER=
